<?xml version="1.0" encoding="UTF-8" standalone="no"?>
<svg
   xmlns:dc="http://purl.org/dc/elements/1.1/"
   xmlns:cc="http://creativecommons.org/ns#"
   xmlns:rdf="http://www.w3.org/1999/02/22-rdf-syntax-ns#"
   xmlns:svg="http://www.w3.org/2000/svg"
   xmlns="http://www.w3.org/2000/svg"
   viewBox="0 0 286.26666 231.73334"
   height="231.73334"
   width="286.26666"
   xml:space="preserve"
   id="svg2"
   version="1.1"><metadata
     id="metadata8"><rdf:RDF><cc:Work
         rdf:about=""><dc:format>image/svg+xml</dc:format><dc:type
           rdf:resource="http://purl.org/dc/dcmitype/StillImage" /></cc:Work></rdf:RDF></metadata><defs
     id="defs6" /><g
     transform="matrix(1.3333333,0,0,-1.3333333,0,231.73333)"
     id="g10"><g
       transform="scale(0.1)"
       id="g12"><path
         id="path14"
         style="fill:#231f20;fill-opacity:1;fill-rule:nonzero;stroke:none"
         d="m 258.035,617.449 v 76.102 h 28.43 v -75.332 c 0,-21.699 10.515,-32.918 27.871,-32.918 17.344,0 27.871,10.84 27.871,31.961 v 76.289 h 28.418 V 618.41 c 0,-40.328 -21.973,-60.121 -56.66,-60.121 -34.707,0 -55.93,19.961 -55.93,59.16" /><path
         id="path16"
         style="fill:#231f20;fill-opacity:1;fill-rule:nonzero;stroke:none"
         d="m 410.684,693.551 h 26.211 l 60.527,-82 v 82 H 525.48 V 560.379 h -24.179 l -62.571,84.652 v -84.652 h -28.046 v 133.172" /><path
         id="path18"
         style="fill:#231f20;fill-opacity:1;fill-rule:nonzero;stroke:none"
         d="m 568.867,693.551 h 28.418 V 560.379 h -28.418 v 133.172" /><path
         id="path20"
         style="fill:#231f20;fill-opacity:1;fill-rule:nonzero;stroke:none"
         d="m 629.59,693.551 h 31.367 l 33.777,-93.789 33.782,93.789 h 30.632 L 706.926,559.43 h -25.11 L 629.59,693.551" /><path
         id="path22"
         style="fill:#231f20;fill-opacity:1;fill-rule:nonzero;stroke:none"
         d="m 790.176,693.551 h 97.441 v -26.063 h -69.211 v -27.027 h 60.91 V 614.41 h -60.91 v -27.969 h 70.129 v -26.062 h -98.359 v 133.172" /><path
         id="path24"
         style="fill:#231f20;fill-opacity:1;fill-rule:nonzero;stroke:none"
         d="m 989.512,628.859 c 13.838,0 21.778,7.621 21.778,18.832 v 0.391 c 0,12.559 -8.5,19.02 -22.337,19.02 h -28.23 v -38.243 z m -57.215,64.692 h 59.058 c 16.415,0 29.155,-4.75 37.645,-13.52 7.2,-7.422 11.08,-17.871 11.08,-30.429 v -0.372 c 0,-21.5 -11.26,-35.019 -27.69,-41.289 l 31.57,-47.562 h -33.23 L 983.047,603 h -0.371 -21.953 v -42.621 h -28.426 v 133.172" /><path
         id="path26"
         style="fill:#231f20;fill-opacity:1;fill-rule:nonzero;stroke:none"
         d="m 1075.33,579.781 16.8,20.739 c 11.63,-9.899 23.81,-16.168 38.57,-16.168 11.63,0 18.65,4.738 18.65,12.558 v 0.371 c 0,7.418 -4.43,11.231 -26.03,16.93 -26.02,6.859 -42.81,14.277 -42.81,40.719 v 0.371 c 0,24.168 18.83,40.14 45.21,40.14 18.83,0 34.89,-6.07 47.99,-16.929 l -14.76,-22.071 c -11.45,8.18 -22.7,13.137 -33.6,13.137 -10.88,0 -16.61,-5.129 -16.61,-11.598 v -0.39 c 0,-8.75 5.54,-11.602 27.87,-17.5 26.2,-7.051 40.98,-16.738 40.98,-39.961 v -0.367 c 0,-26.453 -19.56,-41.293 -47.43,-41.293 -19.57,0 -39.32,7.051 -54.83,21.312" /><path
         id="path28"
         style="fill:#231f20;fill-opacity:1;fill-rule:nonzero;stroke:none"
         d="m 1218.38,693.551 h 28.42 V 560.379 h -28.42 v 133.172" /><path
         id="path30"
         style="fill:#231f20;fill-opacity:1;fill-rule:nonzero;stroke:none"
         d="m 1320.27,666.539 h -39.31 v 27.012 H 1388 v -27.012 h -39.31 v -106.16 h -28.42 v 106.16" /><path
         id="path32"
         style="fill:#231f20;fill-opacity:1;fill-rule:nonzero;stroke:none"
         d="m 1460.91,612.879 -49.65,80.672 h 33.22 l 30.82,-53.461 31.38,53.461 h 32.3 l -49.64,-80.102 v -53.07 h -28.43 v 52.5" /><path
         id="path34"
         style="fill:#231f20;fill-opacity:1;fill-rule:nonzero;stroke:none"
         d="m 1737.21,626.57 v 0.399 c 0,22.832 -16.23,41.851 -39.12,41.851 -22.89,0 -38.75,-18.648 -38.75,-41.48 v -0.371 c 0,-22.84 16.24,-41.86 39.12,-41.86 22.89,0 38.75,18.629 38.75,41.461 z m -107.6,0 v 0.399 c 0,37.851 28.98,68.859 68.85,68.859 39.86,0 68.47,-30.617 68.47,-68.488 v -0.371 c 0,-37.879 -28.98,-68.867 -68.84,-68.867 -39.87,0 -68.48,30.617 -68.48,68.468" /><path
         id="path36"
         style="fill:#231f20;fill-opacity:1;fill-rule:nonzero;stroke:none"
         d="m 1798.5,693.551 h 98.36 V 666.91 h -69.95 v -28.34 h 61.64 v -26.64 h -61.64 v -51.551 h -28.41 v 133.172" /><path
         id="path38"
         style="fill:#231f20;fill-opacity:1;fill-rule:nonzero;stroke:none"
         d="m 366.266,507.129 c -70.645,0 -123.899,-55.238 -123.899,-128.488 v -0.719 c 0,-34.703 12.367,-66.91 34.824,-90.633 22.664,-23.937 53.684,-37.117 87.352,-37.117 39.883,0 68.012,12.547 96.812,43.258 l -25.875,27.121 c -20.738,-19.871 -39.734,-32.16 -69.558,-32.16 -45.449,0 -81.039,39.648 -81.039,90.25 v 0.73 c 0,51.027 34.844,89.527 81.039,89.527 24.488,0 45.422,-9.468 67.762,-30.668 l 25.945,30.918 c -19.301,18.911 -45.586,37.981 -93.363,37.981" /><path
         id="path40"
         style="fill:#231f20;fill-opacity:1;fill-rule:nonzero;stroke:none"
         d="m 642.926,351.762 h -86.692 l 43.164,104.148 z m 39.226,-97.313 h 44.61 L 621.07,504.621 H 579.199 L 473.5,254.449 h 43.133 l 24.949,60.512 h 115.996 l 24.574,-60.512" /><path
         id="path42"
         style="fill:#231f20;fill-opacity:1;fill-rule:nonzero;stroke:none"
         d="m 1351.19,351.762 h -86.7 l 43.17,104.148 z m 39.24,-97.313 h 44.59 l -105.7,250.172 h -41.86 L 1181.78,254.449 h 43.12 l 24.94,60.512 h 116 l 24.59,-60.512" /><path
         id="path44"
         style="fill:#231f20;fill-opacity:1;fill-rule:nonzero;stroke:none"
         d="M 753.063,254.449 H 923.992 V 292.34 H 796.602 V 502.82 H 753.063 V 254.449" /><path
         id="path46"
         style="fill:#231f20;fill-opacity:1;fill-rule:nonzero;stroke:none"
         d="m 1054.66,507.129 c -69.472,0 -126.445,-56.43 -126.445,-128.488 v -0.719 c 0,-75.223 53.773,-127.75 127.125,-127.75 46.48,0 79.99,20.816 103.94,38.418 v 103.629 h -99.51 v -36.098 h 56.54 v -48.57 l -0.41,-0.321 c -15.86,-12.179 -37.43,-19.191 -59.17,-19.191 -49.13,0 -83.468,37.262 -83.468,90.602 v 0.73 c 0,49.348 35.728,89.527 79.648,89.527 30.89,0 49.51,-10.527 67.73,-26.386 l 25.65,31.578 c -27.08,23.461 -53.71,33.039 -91.63,33.039" /><path
         id="path48"
         style="fill:#231f20;fill-opacity:1;fill-rule:nonzero;stroke:none"
         d="m 1569.65,378.629 h -63.42 v 86.32 h 63.07 c 32.58,0 51.27,-15.519 51.27,-42.629 v -0.73 c 0,-26.11 -20,-42.961 -50.92,-42.961 z m 51.09,-124.18 h 47.55 l -65.08,94.41 1.46,0.43 c 36.78,10.859 61.33,37.43 61.33,74.82 v 0.731 c 0,21.09 -11.16,39.512 -24.09,53.281 -15.97,16.168 -39.9,24.699 -69.16,24.699 H 1463.01 V 254.449 h 43.22 v 87.371 h 54.98 l 59.53,-87.371" /><path
         id="path50"
         style="fill:#231f20;fill-opacity:1;fill-rule:nonzero;stroke:none"
         d="m 1762.39,254.449 h 46.48 v 95.539 l 95.39,152.832 h -47.99 l -69.14,-111.91 -68.46,111.91 h -48.83 l 92.55,-152.832 v -95.539" /><path
         id="path52"
         style="fill:#231f20;fill-opacity:1;fill-rule:nonzero;stroke:none"
         d="m 1077.25,1487.84 c -196.93,0 -278.535,-66.09 -278.535,-66.09 v -296.23 c 0,-164.051 216.975,-334.258 278.535,-351.192 61.51,16.934 278.47,187.141 278.47,351.192 v 296.23 c 0,0 -81.53,66.09 -278.47,66.09" /><path
         id="path54"
         style="fill:#fccb06;fill-opacity:1;fill-rule:nonzero;stroke:none"
         d="m 1043.25,1121.08 c 1.26,-1.62 2.14,-3.53 2.14,-5.72 0,-5.35 -4.41,-9.62 -9.82,-9.62 -5.48,0 -9.93,4.27 -9.93,9.62 0,2.84 1.34,5.32 3.33,7.07 -7.76,1.45 -15.85,5.39 -15.85,5.39 1.81,-5.6 5.88,-27.09 20.01,-28.63 17.44,-1.97 21.96,14.22 21.96,14.22 0,0 -2.92,5.17 -11.84,7.67" /><path
         id="path56"
         style="fill:#fccb06;fill-opacity:1;fill-rule:nonzero;stroke:none"
         d="m 1126.58,1122.43 c 2.01,-1.75 3.33,-4.23 3.33,-7.07 0,-5.35 -4.46,-9.62 -9.93,-9.62 -5.4,0 -9.82,4.27 -9.82,9.62 0,2.19 0.88,4.1 2.14,5.72 -8.92,-2.5 -11.83,-7.67 -11.83,-7.67 0,0 4.51,-16.19 21.96,-14.22 14.11,1.54 18.2,23.03 20.01,28.63 0,0 -8.08,-3.94 -15.86,-5.39" /><path
         id="path58"
         style="fill:#fccb06;fill-opacity:1;fill-rule:nonzero;stroke:none"
         d="m 1143,1172.34 c -5.71,4.72 -13.21,-1.18 -7.55,-7.59 4.73,-5.32 7.83,-8.76 5.78,-12.65 -2.79,-5.28 -29.39,-3.99 -63.45,-16.8 -34.06,12.81 -60.66,11.52 -63.46,16.8 -2.04,3.89 1.07,7.33 5.78,12.65 5.67,6.41 -1.82,12.31 -7.54,7.59 -4.8,-3.93 -13.599,-16.07 -10.45,-24.22 4.97,-12.98 35.32,-8.89 75.58,-25.57 v -0.07 c 0.03,0.02 0.06,0.03 0.09,0.04 0.03,-0.01 0.06,-0.02 0.09,-0.04 v 0.07 c 40.26,16.68 70.61,12.59 75.57,25.57 3.16,8.15 -5.65,20.29 -10.44,24.22" /><path
         id="path60"
         style="fill:#fccb06;fill-opacity:1;fill-rule:nonzero;stroke:none"
         d="m 1107.15,1003.08 c -5.22,2.05 -14.56,7.47 -17.2,16.92 -2.36,8.63 0.99,14.55 4.87,15.5 3.68,0.89 7.62,-1.55 6.04,-6.06 -1.13,-3.38 -4.77,-5.08 -6.09,-5.94 -2.21,-1.32 -0.32,-4.25 2.48,-3.7 6.14,1.2 9.68,7.9 9.45,12.63 -0.29,7.34 -8.66,9.08 -13.26,8.19 -7.19,-1.39 -12.42,-8.52 -9.46,-20.82 2.82,-11.64 13.12,-17.93 18.52,-20.39 -4.71,-1.961 -14.9,-3.566 -24.73,-4.183 -9.83,0.617 -20.01,2.222 -24.72,4.183 5.4,2.46 15.71,8.75 18.51,20.39 2.98,12.3 -2.26,19.43 -9.44,20.82 -4.6,0.89 -12.97,-0.85 -13.26,-8.19 -0.24,-4.73 3.31,-11.43 9.44,-12.63 2.79,-0.55 4.69,2.38 2.49,3.7 -1.34,0.86 -4.96,2.56 -6.1,5.94 -1.58,4.51 2.38,6.95 6.03,6.06 3.9,-0.95 7.25,-6.87 4.89,-15.5 -2.64,-9.45 -11.99,-14.87 -17.22,-16.92 -4.44,-1.74 -5.08,-6.291 -2.3,-7.908 9.21,-5.227 22.7,-6.41 31.03,-6.516 v -0.019 c 0.2,0 0.45,0.008 0.65,0.011 0.22,-0.003 0.47,-0.011 0.67,-0.011 v 0.019 c 8.32,0.106 21.81,1.289 31.03,6.516 2.78,1.617 2.13,6.168 -2.32,7.908" /><path
         id="path62"
         style="fill:#fccb06;fill-opacity:1;fill-rule:nonzero;stroke:none"
         d="m 1077.97,1394.05 c 2.46,0.35 5.27,1.11 7.66,2.75 v 0 c 0.37,0.33 0.71,0.58 1.08,0.87 2.65,2.45 7.98,9.8 9.56,13.03 0.35,0.58 0.35,1.24 0,2.05 -0.7,1.64 -2.47,3.18 -2.97,3.31 -2.38,0.82 -28.39,0.89 -30.84,0.06 v 0 c 0,0 -0.14,-0.03 -0.43,-0.19 -1.16,-0.84 -3.42,-3.26 -2.62,-5.04 1.53,-3.09 7.21,-10.71 9.88,-13.16 2.51,-2.25 5.79,-3.15 8.68,-3.68" /><path
         id="path64"
         style="fill:#fccb06;fill-opacity:1;fill-rule:nonzero;stroke:none"
         d="m 1058.03,1381.62 c 0.29,2.36 0.41,5.19 -0.4,7.84 v 0 c -0.1,0.45 -0.28,0.82 -0.5,1.31 -1.6,3.17 -7.28,10.11 -9.92,12.58 -0.54,0.49 -1.23,0.68 -2.04,0.65 -1.86,-0.16 -3.89,-1.34 -4.24,-1.74 -1.51,-1.94 -9.63,-25.78 -9.59,-28.22 v 0 c 0,0 0,-0.17 0.14,-0.49 0.41,-1.33 2.07,-4.16 4.17,-3.89 3.44,0.37 12.85,3.38 16.05,5.11 2.97,1.55 4.88,4.3 6.33,6.85" /><path
         id="path66"
         style="fill:#fccb06;fill-opacity:1;fill-rule:nonzero;stroke:none"
         d="m 1064.05,1359.46 c -2.27,1.04 -4.95,2.08 -7.79,2.08 v 0 c -0.49,0 -0.94,0 -1.4,-0.09 -3.69,-0.46 -12.38,-3.69 -15.67,-5.44 -0.59,-0.31 -1,-0.85 -1.21,-1.64 -0.45,-1.72 0.07,-3.92 0.34,-4.39 1.53,-2.01 22.46,-16.77 24.94,-17.55 v 0 c 0,0 0.07,0 0.47,0 1.42,0 4.83,0.67 5.23,2.62 0.62,3.27 0.62,12.97 -0.09,16.47 -0.6,3.22 -2.76,5.8 -4.82,7.94" /><path
         id="path68"
         style="fill:#fccb06;fill-opacity:1;fill-rule:nonzero;stroke:none"
         d="m 1087.86,1358.19 c -1.75,-1.73 -3.63,-3.9 -4.52,-6.59 v 0 c -0.17,-0.43 -0.24,-0.86 -0.33,-1.33 -0.71,-3.48 -0.24,-12.58 0.36,-16.13 0.18,-0.64 0.6,-1.19 1.27,-1.69 1.63,-0.95 3.94,-1.06 4.45,-0.98 2.53,0.72 23.53,15.38 25.01,17.48 v 0 c 0,0 0.12,0.05 0.16,0.34 0.53,1.36 0.88,4.66 -0.94,5.57 -3.04,1.68 -12.54,4.75 -16.16,5.26 -3.43,0.44 -6.6,-0.72 -9.3,-1.93" /><path
         id="path70"
         style="fill:#fccb06;fill-opacity:1;fill-rule:nonzero;stroke:none"
         d="m 1096.43,1379.53 c 1.23,-2.14 2.73,-4.47 5.09,-6.13 v 0 c 0.32,-0.21 0.72,-0.48 1.2,-0.69 3.24,-1.7 12.32,-4.32 15.97,-4.81 0.69,-0.15 1.31,0.11 2.01,0.67 1.48,1.11 2.36,3.2 2.41,3.71 0.03,2.49 -7.93,26.28 -9.45,28.31 v 0 c 0,0 -0.1,0.14 -0.36,0.29 -1.19,0.88 -4.36,2.2 -5.78,0.84 -2.58,-2.28 -8.56,-9.86 -10.11,-13.07 -1.52,-2.92 -1.34,-6.26 -0.98,-9.12" /><path
         id="path72"
         style="fill:#fccb06;fill-opacity:1;fill-rule:nonzero;stroke:none"
         d="m 1084.21,1371.91 c -1.53,0.39 -2.37,2.02 -1.91,3.5 0.56,1.46 2.16,2.27 3.66,1.75 1.49,-0.46 2.35,-2.02 1.84,-3.46 -0.46,-1.48 -2.1,-2.22 -3.59,-1.79 z m -6.01,8.57 c -1.32,0.88 -1.61,2.63 -0.64,3.9 0.88,1.27 2.67,1.51 4.02,0.64 1.28,-0.95 1.51,-2.71 0.57,-3.9 -0.9,-1.26 -2.72,-1.56 -3.95,-0.64 z m 0.34,-16.02 c -1.58,0 -2.84,1.22 -2.84,2.78 0,1.52 1.26,2.79 2.84,2.79 1.63,0 2.92,-1.27 2.92,-2.79 0,-1.56 -1.29,-2.78 -2.92,-2.78 z m -6.68,13.75 c -1.35,-0.93 -3.14,-0.58 -4.04,0.67 -0.97,1.26 -0.66,2.97 0.59,3.86 1.34,0.92 3.06,0.61 4.03,-0.63 0.97,-1.23 0.68,-2.96 -0.58,-3.9 z m -1.59,-9.94 c -1.55,-0.47 -3.18,0.32 -3.65,1.76 -0.44,1.45 0.33,3.01 1.79,3.52 1.61,0.47 3.24,-0.29 3.64,-1.75 0.55,-1.51 -0.28,-3.04 -1.78,-3.53 z m 22.03,9.36 c -0.64,1.23 -1.69,2.2 -2.89,3 0.16,0.88 0.26,1.78 0.08,2.68 -0.33,2.21 -1.53,4.07 -3.38,5.47 -3.07,2.11 -7.31,1.82 -10.27,-0.32 -2.85,1.35 -6.43,1.31 -9.06,-0.53 -1.82,-1.3 -3.09,-3.2 -3.37,-5.43 -0.29,-1.4 -0.04,-2.74 0.43,-4.02 -0.66,-0.62 -1.29,-1.28 -1.72,-2.1 -1.05,-2.02 -1.21,-4.24 -0.5,-6.35 1.13,-3.49 4.48,-5.78 8.19,-5.78 0.09,0 0.17,0.04 0.25,0.04 1.42,-2.68 4.22,-4.59 7.63,-4.59 3.88,0 7.08,2.56 8.16,5.99 3.22,0.47 5.95,2.54 6.96,5.58 0.76,2.13 0.53,4.33 -0.51,6.36" /><path
         id="path74"
         style="fill:#fccb06;fill-opacity:1;fill-rule:nonzero;stroke:none"
         d="m 923.66,1407.32 c -8.019,7.51 -12.523,9.19 -14.855,9.19 -1.321,0 -2.969,-0.45 -5.719,-3.39 -0.688,-0.69 -1.383,-1.49 -2.055,-2.23 -3.82,-4.38 -8.543,-9.93 -16.82,-9.93 -3.066,0 -6.32,0.84 -9.824,2.49 v -63.32 c 3.207,-5.51 6.414,-8.66 9.133,-8.66 1.503,0 4.085,0.86 8.062,5.14 9.348,9.97 20.621,11.82 32.078,5.08 v 65.63" /><path
         id="path76"
         style="fill:#fccb06;fill-opacity:1;fill-rule:nonzero;stroke:none"
         d="m 974.02,1400.96 c -8.243,0 -13.047,5.55 -16.809,9.93 -0.684,0.74 -1.383,1.54 -2.051,2.23 -2.726,2.94 -4.414,3.39 -5.734,3.39 -2.371,0 -6.828,-1.68 -14.813,-9.19 v -65.63 c 4.469,2.67 8.938,3.99 13.395,3.99 6.738,0 12.965,-3.04 18.676,-9.07 3.925,-4.28 6.531,-5.14 8,-5.14 2.781,0 5.961,3.15 9.144,8.66 v 63.32 c -3.5,-1.65 -6.762,-2.49 -9.808,-2.49" /><path
         id="path78"
         style="fill:#fccb06;fill-opacity:1;fill-rule:nonzero;stroke:none"
         d="m 1231.23,1341.69 c 11.47,6.74 22.73,4.89 32.08,-5.08 3.98,-4.28 6.55,-5.14 8.06,-5.14 2.72,0 5.93,3.15 9.14,8.66 v 63.32 c -3.51,-1.65 -6.76,-2.49 -9.83,-2.49 -8.28,0 -13,5.55 -16.81,9.93 -0.69,0.74 -1.37,1.54 -2.06,2.23 -2.75,2.94 -4.41,3.39 -5.72,3.39 -2.34,0 -6.83,-1.68 -14.86,-9.19 v -65.63" /><path
         id="path80"
         style="fill:#fccb06;fill-opacity:1;fill-rule:nonzero;stroke:none"
         d="m 1180.88,1400.96 c -3.05,0 -6.31,0.84 -9.82,2.49 v -63.32 c 3.19,-5.51 6.36,-8.66 9.15,-8.66 1.47,0 4.07,0.86 7.99,5.14 5.73,6.03 11.95,9.07 18.68,9.07 4.47,0 8.93,-1.32 13.39,-3.99 v 65.63 c -7.98,7.51 -12.44,9.19 -14.8,9.19 -1.33,0 -3.01,-0.45 -5.74,-3.39 -0.67,-0.69 -1.37,-1.49 -2.05,-2.23 -3.75,-4.38 -8.56,-9.93 -16.8,-9.93" /><path
         id="path82"
         style="fill:#fccb06;fill-opacity:1;fill-rule:nonzero;stroke:none"
         d="m 1012.5,1208.21 c -20.414,7.1 -62.102,27.7 -79.734,76.78 -4.559,12.67 -11.219,10.8 -9.961,-2.68 3.281,-35.32 25.675,-78.26 72.656,-97.79 20.139,-8.34 31.439,18.67 17.039,23.69" /><path
         id="path84"
         style="fill:#fccb06;fill-opacity:1;fill-rule:nonzero;stroke:none"
         d="m 1143.07,1208.21 c 20.41,7.1 62.09,27.7 79.72,76.78 4.55,12.67 11.21,10.8 9.96,-2.68 -3.28,-35.32 -25.68,-78.26 -72.65,-97.79 -20.14,-8.34 -31.45,18.67 -17.03,23.69" /><path
         id="path86"
         style="fill:#fccb06;fill-opacity:1;fill-rule:nonzero;stroke:none"
         d="m 1130.31,1218.14 c 2.78,0.59 6.75,1.65 11.31,3.13 12.6,4.76 35,16.1 52.19,38.8 -39.54,7.72 -79.83,11.91 -115.88,11.91 -36.36,0 -76.89,-4.28 -116.668,-12.13 17.933,-23.56 41.478,-34.83 53.648,-39.18 3.83,-1.13 7.27,-2.01 9.67,-2.53 5.66,-1.2 11.41,-2.11 18.48,3.78 7.09,5.94 8.39,9.46 34.39,9.46 26,0 27.3,-3.52 34.39,-9.46 7.07,-5.89 12.81,-4.98 18.47,-3.78" /><path
         id="path88"
         style="fill:#fccb06;fill-opacity:1;fill-rule:nonzero;stroke:none"
         d="m 1265.9,1154.76 -58.07,-95.82 c 21.9,9.9 54.67,34.83 58.07,95.82" /><path
         id="path90"
         style="fill:#fccb06;fill-opacity:1;fill-rule:nonzero;stroke:none"
         d="m 947.063,1058.94 -58.075,95.82 c 3.407,-60.99 36.172,-85.92 58.075,-95.82" /><path
         id="path92"
         style="fill:#fccb06;fill-opacity:1;fill-rule:nonzero;stroke:none"
         d="m 1250.74,985.32 c -11.17,-8.965 -19.88,-15.132 -26.89,-20.058 -15.35,-10.754 -21.27,-15.61 -20.61,-23.625 l 2.7,-34.485 -20.14,9.325 c -15.89,7.046 -23.3,16.605 -24.69,32.027 -2.15,23.883 12.62,48.75 39.5,66.626 6.37,4.19 12.07,7.2 16.66,9.48 4.53,2.31 8.73,4.77 9.12,5.98 0.88,2.65 -4.18,6.99 -18.97,13.59 -1.5,0.67 -4.26,1.84 -6.78,2.9 L 1077.45,843.801 954.246,1047.08 c -2.516,-1.06 -5.277,-2.23 -6.773,-2.9 -14.785,-6.6 -19.844,-10.94 -18.973,-13.59 0.395,-1.21 4.602,-3.67 9.133,-5.98 4.59,-2.28 10.277,-5.29 16.66,-9.48 26.875,-17.876 41.645,-42.743 39.48,-66.626 -1.386,-15.422 -8.793,-24.981 -24.675,-32.027 l -20.137,-9.325 2.687,34.485 c 0.665,8.015 -5.253,12.871 -20.597,23.625 -7.02,4.926 -15.731,11.093 -26.906,20.058 -68.957,55.41 -71.211,125.24 -51.043,154.98 6.718,9.79 25.66,31.02 25.777,31.14 l -3.188,4.9 c -6.929,0.68 -12.375,6.46 -12.375,13.57 0,7.56 6.133,13.7 13.696,13.7 7.562,0 13.695,-6.14 13.695,-13.7 0,-1.47 -0.293,-2.86 -0.719,-4.18 0.129,-0.11 0.328,-0.15 0.262,-0.43 l 187.2,-313.339 187.2,313.339 c -0.08,0.28 0.13,0.32 0.25,0.43 -0.43,1.32 -0.72,2.71 -0.72,4.18 0,7.56 6.13,13.7 13.7,13.7 7.57,0 13.7,-6.14 13.7,-13.7 0,-7.11 -5.45,-12.89 -12.38,-13.57 l -3.18,-4.9 c 0.11,-0.12 19.06,-21.35 25.78,-31.14 20.15,-29.74 17.91,-99.57 -51.06,-154.98 z m -12.16,264.34 c -7.97,-21.87 -22.53,-44.54 -45.45,-61.6 18.23,-5.77 41.15,-5.9 56.81,4.49 -5.33,-13.61 -21.98,-31.34 -34.03,-43.01 -2.19,1.45 -4.38,3.36 -5.97,5.05 -4.84,5.18 -9.22,0.63 -5.92,-3.66 1.16,-1.49 4.11,-5.7 5.84,-7.13 -3.59,-3.32 -6.21,-5.62 -6.99,-6.31 -2.43,1.48 -4.93,3.71 -6.7,5.6 -4.84,5.18 -9.22,0.62 -5.92,-3.67 1.18,-1.52 4.25,-5.92 5.96,-7.25 -2.96,-2.37 -6.21,-4.95 -9.09,-6.91 -6.07,7.65 -12.57,15.67 -22.39,10.65 -10.39,-5.31 -0.08,-12.3 -0.08,-22.7 0,-41.55 -26.13,-56.98 -32.59,-74.59 -6.53,-17.59 -12.67,-49.05 -17.83,-57.64 -5.08,-8.457 -26.81,-17.945 -36.78,-10.113 -9.97,-7.832 -31.91,1.539 -36.79,10.113 -4.88,8.59 -11.81,40.05 -18.34,57.64 -6.46,17.61 -32.082,33.04 -32.082,74.59 0,10.4 10.312,17.39 -0.078,22.7 -9.812,5.02 -16.316,-3 -22.387,-10.65 -2.878,1.96 -6.132,4.54 -9.097,6.91 1.715,1.33 4.797,5.73 5.965,7.25 3.297,4.29 -1.078,8.85 -5.918,3.67 -1.77,-1.89 -4.27,-4.12 -6.696,-5.6 -0.789,0.69 -3.406,2.99 -6.992,6.31 1.735,1.43 4.688,5.64 5.828,7.13 3.301,4.29 -1.074,8.84 -5.918,3.66 -1.586,-1.69 -3.773,-3.6 -5.961,-5.05 -12.05,11.67 -28.703,29.4 -34.035,43.01 16.301,-10.82 37.457,-10.29 55.969,-3.82 -22.313,16.89 -36.582,39.1 -44.477,60.59 -35.281,-9.72 -68.343,-22.32 -95.273,-37.57 v -88.51 c 0,-142.877 204.282,-308.052 256.732,-322.818 52.43,14.766 255.38,179.941 255.38,322.818 v 89.36 c -26.73,15.05 -59.61,27.48 -94.7,37.06" /><path
         id="path94"
         style="fill:#e42124;fill-opacity:1;fill-rule:nonzero;stroke:none"
         d="m 1295.94,1313.42 -61.07,12.96 v -5.7 h -18.21 v 5.7 l -33.93,-5.09 c -0.42,-0.08 -0.84,-0.15 -1.25,-0.19 l -25.84,-3.89 v 90.1 l 4.56,1.26 v 15 l 8.75,-6.46 c 6.19,-4.65 9.9,-5.64 11.91,-5.64 3,0 5.16,2.32 8.48,6.16 0.8,0.84 1.55,1.71 2.28,2.55 4.32,4.56 8.77,6.78 13.84,6.78 5.99,0 12.45,-3.36 20.34,-10.3 7.85,6.94 14.32,10.3 20.27,10.3 5.06,0 9.53,-2.22 13.79,-6.78 0.78,-0.84 1.56,-1.71 2.31,-2.55 3.28,-3.84 5.54,-6.16 8.5,-6.16 2,0 5.7,0.99 11.88,5.64 l 8.81,6.46 v -15 l 4.58,-1.26 z m -160.02,43.55 c -0.9,-2.68 -4.44,-4.11 -8.87,-4.15 0.05,-2.55 -0.62,-5.03 -1.32,-6.03 -2.51,-3.33 -31.16,-23.27 -35.2,-24.5 -0.45,-0.11 -1,-0.15 -1.64,-0.15 -1.31,0 -2.74,0.21 -4.27,0.62 -1.32,-4.37 -3.96,-7.43 -6.99,-7.43 -2.95,0 -5.55,2.89 -6.91,7.13 -1.73,-0.64 -3.6,-0.95 -5.06,-0.95 -0.72,0 -1.26,0.06 -1.77,0.16 -4.01,1.28 -32.53,21.38 -34.94,24.76 -0.71,0.93 -1.3,3.05 -1.43,5.3 -4.5,0 -8.11,1.4 -9,4.12 -0.88,2.72 1.06,5.92 4.69,8.49 -1.93,2.14 -3.07,5.02 -3.07,6.27 -0.08,4.12 10.89,36.47 13.54,39.77 0.68,0.8 2.69,2.16 5.14,2.97 -1.26,4.01 -0.89,7.58 1.43,9.22 2.29,1.58 5.88,0.94 9.29,-1.39 1.56,2.39 3.96,4.3 5.22,4.71 2.65,0.87 14.49,0.95 19.51,0.95 7.71,0 21.41,-0.26 23.96,-1.07 1.22,-0.43 3.26,-2.08 4.77,-4.18 3.7,2.51 7.38,3.34 9.78,1.64 2.24,-1.53 2.73,-5 1.57,-8.84 2.72,-0.75 5.01,-2.3 5.67,-3.23 2.6,-3.26 13.39,-35.67 13.3,-39.86 0,-1.16 -0.92,-3.55 -2.53,-5.62 3.86,-2.62 6.09,-5.87 5.13,-8.71 z m -136.666,-39.76 -25.848,3.89 c -0.414,0.04 -0.828,0.11 -1.242,0.19 l -33.926,5.09 v -5.7 h -9.097 -9.121 v 5.7 l -61.059,-12.96 v 93.89 l 4.574,1.26 v 15 l 8.809,-6.46 c 6.179,-4.65 9.883,-5.64 11.875,-5.64 2.969,0 5.219,2.32 8.511,6.16 0.747,0.84 1.524,1.71 2.305,2.55 4.262,4.56 8.731,6.78 13.778,6.78 5.957,0 12.425,-3.36 20.285,-10.3 7.879,6.94 14.355,10.3 20.336,10.3 5.07,0 9.527,-2.22 13.843,-6.78 0.727,-0.84 1.485,-1.71 2.282,-2.55 3.32,-3.84 5.476,-6.16 8.468,-6.16 2.012,0 5.731,0.99 11.926,5.64 l 8.742,6.46 v -15 l 4.559,-1.26 z m 77.956,149.38 c -189.081,0 -256.042,-57.86 -256.042,-57.86 v -170.19 c 25.625,13.13 56.453,24.05 89.27,32.66 -0.61,3.37 -1.118,6.68 -1.411,9.86 -0.847,9.12 0.868,16.09 5.09,20.73 3.078,3.38 7.238,5.24 11.711,5.24 4.863,0 13.844,-2.27 19.309,-17.48 1.211,-3.37 2.578,-6.54 4.019,-9.62 43.742,8.75 88.154,13.45 128.054,13.45 39.8,0 84.86,-4.69 128.55,-13.41 1.43,3.07 2.79,6.23 4,9.58 5.45,15.21 14.44,17.48 19.3,17.48 4.48,0 8.64,-1.86 11.72,-5.24 4.22,-4.64 5.94,-11.61 5.08,-20.73 -0.29,-3.22 -0.81,-6.57 -1.43,-9.97 32.65,-8.59 63.32,-19.48 88.85,-32.55 v 170.19 c 0,0 -67.08,57.86 -256.07,57.86" /><path
         id="path96"
         style="fill:#e42124;fill-opacity:1;fill-rule:nonzero;stroke:none"
         d="m 1223.88,1051.21 c 8.46,-4.62 17.19,-11.4 17.19,-20.62 0,-9.82 -8.2,-14 -16.96,-18.49 -4.48,-2.31 -9.49,-4.83 -15.16,-8.65 -8.46,-5.602 -35.7,-25.946 -33.23,-53.712 0.92,-9.664 4.53,-14.804 14.15,-19.488 l -1.26,12.477 c -0.56,12.39 10.52,22.695 26.58,33.972 6.84,4.848 15.34,10.828 26.18,19.496 59.43,47.735 66.07,109.825 48.14,136.345 -2.4,3.52 -5.92,8.55 -9.49,13.51 -5.31,-54.11 -32.87,-81.32 -56.14,-94.84" /><path
         id="path98"
         style="fill:#e42124;fill-opacity:1;fill-rule:nonzero;stroke:none"
         d="m 874.867,1146.05 c -3.566,-4.96 -7.09,-9.99 -9.484,-13.51 -17.938,-26.52 -11.285,-88.61 48.14,-136.345 10.848,-8.668 19.336,-14.648 26.184,-19.496 16.055,-11.277 27.141,-21.582 26.566,-33.972 L 965.02,930.25 c 9.621,4.684 13.238,9.824 14.144,19.488 2.477,27.766 -24.754,48.11 -33.211,53.712 -5.68,3.82 -10.695,6.34 -15.172,8.65 -8.765,4.49 -16.968,8.67 -16.968,18.49 0,9.22 8.742,16 17.203,20.62 -23.278,13.52 -50.836,40.73 -56.149,94.84" /></g></g></svg>